HIERARCHY
ROOT mixamorig:Hips
{
	OFFSET -0.000008 104.274872 1.554316
	CHANNELS 6 Xposition Yposition Zposition Xrotation Yrotation Zrotation
	JOINT mixamorig:Spine
	{
		OFFSET -0.000005 10.181595 0.131519
		CHANNELS 6 Xposition Yposition Zposition Xrotation Yrotation Zrotation
		JOINT mixamorig:Spine1
		{
			OFFSET -0.000000 9.893959 -1.470707
			CHANNELS 6 Xposition Yposition Zposition Xrotation Yrotation Zrotation
			JOINT mixamorig:Spine2
			{
				OFFSET -0.000000 9.220757 -1.370641
				CHANNELS 6 Xposition Yposition Zposition Xrotation Yrotation Zrotation
				JOINT mixamorig:Neck
				{
					OFFSET 0.000001 16.740417 -2.049036
					CHANNELS 6 Xposition Yposition Zposition Xrotation Yrotation Zrotation
					JOINT mixamorig:Head
					{
						OFFSET 0.000000 9.617874 1.685006
						CHANNELS 6 Xposition Yposition Zposition Xrotation Yrotation Zrotation
						JOINT mixamorig:HeadTop_End
						{
							OFFSET 0.000002 22.037354 7.501101
							CHANNELS 6 Xposition Yposition Zposition Xrotation Yrotation Zrotation
							End Site
							{
								OFFSET 0.000168 2310.654297 -282.823242
							}
						}
					}
				}
				JOINT mixamorig:RightShoulder
				{
					OFFSET -4.569970 11.014908 -2.160885
					CHANNELS 6 Xposition Yposition Zposition Xrotation Yrotation Zrotation
					JOINT mixamorig:RightArm
					{
						OFFSET -10.592851 -0.524811 -2.232101
						CHANNELS 6 Xposition Yposition Zposition Xrotation Yrotation Zrotation
						JOINT mixamorig:RightForeArm
						{
							OFFSET -27.841511 0.000031 -0.000004
							CHANNELS 6 Xposition Yposition Zposition Xrotation Yrotation Zrotation
							JOINT mixamorig:RightHand
							{
								OFFSET -28.328831 -0.000015 0.000015
								CHANNELS 6 Xposition Yposition Zposition Xrotation Yrotation Zrotation
								JOINT mixamorig:RightHandThumb1
								{
									OFFSET -2.464806 -1.573990 2.681852
									CHANNELS 6 Xposition Yposition Zposition Xrotation Yrotation Zrotation
									JOINT mixamorig:RightHandThumb2
									{
										OFFSET -3.215179 -1.872803 1.924282
										CHANNELS 6 Xposition Yposition Zposition Xrotation Yrotation Zrotation
										JOINT mixamorig:RightHandThumb3
										{
											OFFSET -2.654831 -1.527969 1.512609
											CHANNELS 6 Xposition Yposition Zposition Xrotation Yrotation Zrotation
											JOINT mixamorig:RightHandThumb4
											{
												OFFSET -2.018814 -1.152008 1.108052
												CHANNELS 6 Xposition Yposition Zposition Xrotation Yrotation Zrotation
												End Site
												{
													OFFSET -188.809540 -114.533607 132.431396
												}
											}
										}
									}
								}
								JOINT mixamorig:RightHandIndex1
								{
									OFFSET -9.108284 -0.517868 2.259835
									CHANNELS 6 Xposition Yposition Zposition Xrotation Yrotation Zrotation
									JOINT mixamorig:RightHandIndex2
									{
										OFFSET -3.699989 0.000000 0.001215
										CHANNELS 6 Xposition Yposition Zposition Xrotation Yrotation Zrotation
										JOINT mixamorig:RightHandIndex3
										{
											OFFSET -2.850006 0.000031 -0.000522
											CHANNELS 6 Xposition Yposition Zposition Xrotation Yrotation Zrotation
											JOINT mixamorig:RightHandIndex4
											{
												OFFSET -2.772186 -0.000015 -0.000020
												CHANNELS 6 Xposition Yposition Zposition Xrotation Yrotation Zrotation
												End Site
												{
													OFFSET -277.218445 0.000000 -0.050231
												}
											}
										}
									}
								}
								JOINT mixamorig:RightHandMiddle1
								{
									OFFSET -9.532516 -0.000031 -0.000023
									CHANNELS 6 Xposition Yposition Zposition Xrotation Yrotation Zrotation
									JOINT mixamorig:RightHandMiddle2
									{
										OFFSET -3.700005 -0.000015 0.003713
										CHANNELS 6 Xposition Yposition Zposition Xrotation Yrotation Zrotation
										JOINT mixamorig:RightHandMiddle3
										{
											OFFSET -2.949974 0.000015 -0.002054
											CHANNELS 6 Xposition Yposition Zposition Xrotation Yrotation Zrotation
											JOINT mixamorig:RightHandMiddle4
											{
												OFFSET -2.946640 0.000000 -0.000156
												CHANNELS 6 Xposition Yposition Zposition Xrotation Yrotation Zrotation
												End Site
												{
													OFFSET -294.664337 0.000000 -0.113670
												}
											}
										}
									}
								}
								JOINT mixamorig:RightHandRing1
								{
									OFFSET -9.103600 -0.043076 -1.865134
									CHANNELS 6 Xposition Yposition Zposition Xrotation Yrotation Zrotation
									JOINT mixamorig:RightHandRing2
									{
										OFFSET -3.379288 0.000000 -0.001055
										CHANNELS 6 Xposition Yposition Zposition Xrotation Yrotation Zrotation
										JOINT mixamorig:RightHandRing3
										{
											OFFSET -2.889687 -0.000015 0.000379
											CHANNELS 6 Xposition Yposition Zposition Xrotation Yrotation Zrotation
											JOINT mixamorig:RightHandRing4
											{
												OFFSET -2.638809 -0.000015 0.000941
												CHANNELS 6 Xposition Yposition Zposition Xrotation Yrotation Zrotation
												End Site
												{
													OFFSET -263.880371 0.000000 0.516020
												}
											}
										}
									}
								}
								JOINT mixamorig:RightHandPinky1
								{
									OFFSET -8.076683 -0.486710 -3.806280
									CHANNELS 6 Xposition Yposition Zposition Xrotation Yrotation Zrotation
									JOINT mixamorig:RightHandPinky2
									{
										OFFSET -3.600014 -0.000015 -0.003747
										CHANNELS 6 Xposition Yposition Zposition Xrotation Yrotation Zrotation
										JOINT mixamorig:RightHandPinky3
										{
											OFFSET -2.099983 0.000000 -0.005739
											CHANNELS 6 Xposition Yposition Zposition Xrotation Yrotation Zrotation
											JOINT mixamorig:RightHandPinky4
											{
												OFFSET -2.115768 -0.000031 -0.003680
												CHANNELS 6 Xposition Yposition Zposition Xrotation Yrotation Zrotation
												End Site
												{
													OFFSET -211.577087 0.000000 -0.350686
												}
											}
										}
									}
								}
							}
						}
					}
				}
				JOINT mixamorig:LeftShoulder
				{
					OFFSET 4.570447 11.014725 -2.160855
					CHANNELS 6 Xposition Yposition Zposition Xrotation Yrotation Zrotation
					JOINT mixamorig:LeftArm
					{
						OFFSET 10.592371 -0.524597 -2.232119
						CHANNELS 6 Xposition Yposition Zposition Xrotation Yrotation Zrotation
						JOINT mixamorig:LeftForeArm
						{
							OFFSET 27.841532 -0.000031 0.000026
							CHANNELS 6 Xposition Yposition Zposition Xrotation Yrotation Zrotation
							JOINT mixamorig:LeftHand
							{
								OFFSET 28.328846 -0.000061 0.000022
								CHANNELS 6 Xposition Yposition Zposition Xrotation Yrotation Zrotation
								JOINT mixamorig:LeftHandThumb1
								{
									OFFSET 2.466141 -1.576172 2.681732
									CHANNELS 6 Xposition Yposition Zposition Xrotation Yrotation Zrotation
									JOINT mixamorig:LeftHandThumb2
									{
										OFFSET 3.217812 -1.872070 1.916482
										CHANNELS 6 Xposition Yposition Zposition Xrotation Yrotation Zrotation
										JOINT mixamorig:LeftHandThumb3
										{
											OFFSET 2.656029 -1.528778 1.514513
											CHANNELS 6 Xposition Yposition Zposition Xrotation Yrotation Zrotation
											JOINT mixamorig:LeftHandThumb4
											{
												OFFSET 2.020889 -1.154053 1.115139
												CHANNELS 6 Xposition Yposition Zposition Xrotation Yrotation Zrotation
												End Site
												{
													OFFSET 190.885437 -115.081749 130.048782
												}
											}
										}
									}
								}
								JOINT mixamorig:LeftHandIndex1
								{
									OFFSET 9.109314 -0.518021 2.259871
									CHANNELS 6 Xposition Yposition Zposition Xrotation Yrotation Zrotation
									JOINT mixamorig:LeftHandIndex2
									{
										OFFSET 3.699989 0.000000 -0.000322
										CHANNELS 6 Xposition Yposition Zposition Xrotation Yrotation Zrotation
										JOINT mixamorig:LeftHandIndex3
										{
											OFFSET 2.850006 0.000000 0.000352
											CHANNELS 6 Xposition Yposition Zposition Xrotation Yrotation Zrotation
											JOINT mixamorig:LeftHandIndex4
											{
												OFFSET 2.774864 -0.000031 -0.000027
												CHANNELS 6 Xposition Yposition Zposition Xrotation Yrotation Zrotation
												End Site
												{
													OFFSET 277.486267 0.000000 -0.009857
												}
											}
										}
									}
								}
								JOINT mixamorig:LeftHandMiddle1
								{
									OFFSET 9.533394 0.000061 0.000044
									CHANNELS 6 Xposition Yposition Zposition Xrotation Yrotation Zrotation
									JOINT mixamorig:LeftHandMiddle2
									{
										OFFSET 3.699989 -0.000015 -0.000231
										CHANNELS 6 Xposition Yposition Zposition Xrotation Yrotation Zrotation
										JOINT mixamorig:LeftHandMiddle3
										{
											OFFSET 2.949997 -0.000015 -0.000059
											CHANNELS 6 Xposition Yposition Zposition Xrotation Yrotation Zrotation
											JOINT mixamorig:LeftHandMiddle4
											{
												OFFSET 2.952896 0.000031 0.000063
												CHANNELS 6 Xposition Yposition Zposition Xrotation Yrotation Zrotation
												End Site
												{
													OFFSET 295.289337 0.000000 0.022810
												}
											}
										}
									}
								}
								JOINT mixamorig:LeftHandRing1
								{
									OFFSET 9.104523 -0.042999 -1.865074
									CHANNELS 6 Xposition Yposition Zposition Xrotation Yrotation Zrotation
									JOINT mixamorig:LeftHandRing2
									{
										OFFSET 3.150009 -0.000031 0.000043
										CHANNELS 6 Xposition Yposition Zposition Xrotation Yrotation Zrotation
										JOINT mixamorig:LeftHandRing3
										{
											OFFSET 2.949982 -0.000015 0.000040
											CHANNELS 6 Xposition Yposition Zposition Xrotation Yrotation Zrotation
											JOINT mixamorig:LeftHandRing4
											{
												OFFSET 2.644348 0.000000 0.000057
												CHANNELS 6 Xposition Yposition Zposition Xrotation Yrotation Zrotation
												End Site
												{
													OFFSET 264.434631 0.000000 0.012105
												}
											}
										}
									}
								}
								JOINT mixamorig:LeftHandPinky1
								{
									OFFSET 8.077789 -0.486847 -3.806259
									CHANNELS 6 Xposition Yposition Zposition Xrotation Yrotation Zrotation
									JOINT mixamorig:LeftHandPinky2
									{
										OFFSET 3.599953 0.000031 0.014727
										CHANNELS 6 Xposition Yposition Zposition Xrotation Yrotation Zrotation
										JOINT mixamorig:LeftHandPinky3
										{
											OFFSET 2.100021 0.000015 0.007705
											CHANNELS 6 Xposition Yposition Zposition Xrotation Yrotation Zrotation
											JOINT mixamorig:LeftHandPinky4
											{
												OFFSET 2.125504 0.000031 0.007517
												CHANNELS 6 Xposition Yposition Zposition Xrotation Yrotation Zrotation
												End Site
												{
													OFFSET 212.550781 0.000000 0.625752
												}
											}
										}
									}
								}
							}
						}
					}
				}
			}
		}
	}
	JOINT mixamorig:RightUpLeg
	{
		OFFSET -8.207787 -6.751648 -1.599560
		CHANNELS 6 Xposition Yposition Zposition Xrotation Yrotation Zrotation
		JOINT mixamorig:RightLeg
		{
			OFFSET -0.000002 -44.370117 0.345942
			CHANNELS 6 Xposition Yposition Zposition Xrotation Yrotation Zrotation
			JOINT mixamorig:RightFoot
			{
				OFFSET 0.000003 -44.423679 -3.043532
				CHANNELS 6 Xposition Yposition Zposition Xrotation Yrotation Zrotation
				JOINT mixamorig:RightToeBase
				{
					OFFSET -0.000002 -8.728671 10.710558
					CHANNELS 6 Xposition Yposition Zposition Xrotation Yrotation Zrotation
					JOINT mixamorig:RightToe_End
					{
						OFFSET -0.000001 -0.000679 9.278119
						CHANNELS 6 Xposition Yposition Zposition Xrotation Yrotation Zrotation
						End Site
						{
							OFFSET 0.000000 -0.067690 927.812134
						}
					}
				}
			}
		}
	}
	JOINT mixamorig:LeftUpLeg
	{
		OFFSET 8.207793 -6.751686 -1.599556
		CHANNELS 6 Xposition Yposition Zposition Xrotation Yrotation Zrotation
		JOINT mixamorig:LeftLeg
		{
			OFFSET -0.000004 -44.370014 0.346954
			CHANNELS 6 Xposition Yposition Zposition Xrotation Yrotation Zrotation
			JOINT mixamorig:LeftFoot
			{
				OFFSET -0.000001 -44.423672 -3.044401
				CHANNELS 6 Xposition Yposition Zposition Xrotation Yrotation Zrotation
				JOINT mixamorig:LeftToeBase
				{
					OFFSET -0.000002 -8.728669 10.710558
					CHANNELS 6 Xposition Yposition Zposition Xrotation Yrotation Zrotation
					JOINT mixamorig:LeftToe_End
					{
						OFFSET -0.000003 -0.000679 9.278133
						CHANNELS 6 Xposition Yposition Zposition Xrotation Yrotation Zrotation
						End Site
						{
							OFFSET 0.000000 -0.068021 927.813477
						}
					}
				}
			}
		}
	}
}
MOTION
Frames: 3
Frame Time: 0.033333
0.000006 104.270477 1.554256 0.000010 0.000003 -0.000113 -0.000005 10.181587 0.131522 0.000001 -0.000003 0.000084 -0.000000 9.893967 -1.470711 0.000001 0.000000 -0.000000 -0.000000 9.220802 -1.370642 0.000000 -0.000000 -0.000000 0.000001 16.740433 -2.049030 0.000000 -0.000000 -0.000000 0.000000 9.617859 1.685014 0.000000 0.000000 0.000000 0.000002 22.037384 7.501101 0.000000 -0.000000 0.000000 -4.569968 11.014880 -2.160881 0.000008 0.000001 -0.000038 -10.592880 -0.524728 -2.231946 74.925140 21.334511 -16.426523 -27.841526 0.000016 0.000545 -58.925647 109.969276 77.760092 -28.328815 0.000022 0.000026 -0.000318 -0.000044 0.000008 -2.464422 -1.573939 2.682375 -27.419320 -152.569392 31.217660 -3.215251 -1.872498 1.924627 152.091210 33.934593 21.926830 -2.654954 -1.527900 1.513080 150.084459 26.345959 -36.800434 -2.018829 -1.152010 1.108056 -0.000003 0.000000 -0.000000 -9.108394 -0.517580 2.260165 109.511428 17.146623 -24.154677 -3.700056 0.000300 0.001578 105.958173 14.375906 -18.956434 -2.850090 0.000371 -0.000215 105.330239 11.532429 -15.081693 -2.772169 -0.000015 -0.000021 0.000000 0.000001 -0.000001 -9.532591 0.000258 0.000281 101.449182 17.061430 -20.962453 -3.700075 0.000325 0.004006 100.604991 13.548137 -16.170656 -2.950083 0.000325 -0.001768 100.739498 11.418493 -13.758399 -2.946616 0.000001 -0.000155 0.000001 -0.000000 -0.000000 -9.103699 -0.042762 -1.864825 99.105287 19.923442 -23.230129 -3.379351 0.000320 -0.000781 101.567761 11.875741 -14.548537 -2.889760 0.000350 0.000675 105.490448 6.648230 -8.793951 -2.638806 -0.000012 0.000939 -0.000000 0.000000 -0.000001 -8.076751 -0.486389 -3.806028 86.589621 18.831506 -17.616023 -3.600032 0.000289 -0.003503 91.107914 9.061469 -8.872944 -2.099993 0.000330 -0.005476 94.456394 4.477876 -4.606914 -2.115768 -0.000041 -0.003677 -0.000001 0.000001 -0.000003 4.570446 11.014691 -2.160851 -0.000018 0.000010 -0.000021 10.592375 -0.524498 -2.232327 73.052637 -2.157174 1.597931 27.841816 0.000078 -0.000219 90.847042 -70.882952 71.685356 28.328854 -0.000028 0.000019 0.000021 -0.000089 0.000000 2.466241 -1.576029 2.681827 -160.391147 8.587424 64.100212 3.217873 -1.871815 1.916420 169.683646 -21.313549 37.826185 2.656102 -1.528676 1.514496 138.460352 -27.860328 58.351310 2.020895 -1.154074 1.115150 0.000003 0.000003 0.000001 9.109362 -0.517871 2.259743 83.516159 -18.562451 16.590297 3.700050 0.000140 -0.000464 82.671708 -16.634810 14.671253 2.850041 0.000177 0.000222 81.243447 -13.970808 11.998160 2.774877 -0.000030 -0.000033 0.000000 0.000001 0.000001 9.533455 0.000196 -0.000071 82.667385 -17.137619 15.091108 3.700034 0.000174 -0.000375 87.508677 -12.861276 12.315574 2.950063 0.000166 -0.000185 87.354178 -17.508980 16.732944 2.952879 -0.000011 0.000063 -0.000000 -0.000000 0.000001 9.104576 -0.042864 -1.865216 81.022538 -16.408949 14.047682 3.150067 0.000183 -0.000096 86.937271 -12.226732 11.596205 2.950022 0.000175 -0.000079 88.097856 -14.063566 13.610386 2.644331 0.000028 0.000058 0.000001 -0.000000 0.000001 8.077825 -0.486752 -3.806393 69.731362 -16.545527 11.987501 3.600021 0.000168 0.014571 73.196747 -14.962940 11.530954 2.100033 0.000167 0.007546 76.925545 -14.930035 12.284134 2.125517 -0.000028 0.007517 -0.000002 -0.000002 -0.000002 -8.207786 -6.751667 -1.599560 -0.077001 -0.000003 0.000080 -0.000002 -44.370110 0.345938 0.153719 -0.000000 -0.000000 0.000000 -44.423679 -3.043532 -0.076700 0.000000 -0.000002 -0.000006 -8.728667 10.710559 -0.000009 -0.000000 -0.000000 -0.000001 -0.000679 9.278123 0.000000 -0.000000 -0.000000 8.207792 -6.751710 -1.599556 -0.074518 -0.000003 0.000081 -0.000002 -44.370014 0.346960 0.148822 0.000002 0.000000 -0.000001 -44.423664 -3.044403 -0.074314 0.000000 -0.000002 -0.000004 -8.728671 10.710558 0.000007 -0.000000 -0.000000 0.000000 -0.000680 9.278137 -0.000000 0.000000 -0.000001 
0.000006 104.270477 1.554256 0.000010 0.000003 -0.000113 -0.000005 10.181587 0.131522 0.000001 -0.000003 0.000084 -0.000000 9.893967 -1.470711 0.000001 0.000000 -0.000000 -0.000000 9.220802 -1.370642 0.000000 -0.000000 -0.000000 0.000001 16.740433 -2.049030 0.000000 -0.000000 -0.000000 0.000000 9.617859 1.685014 0.000000 0.000000 0.000000 0.000002 22.037384 7.501101 0.000000 -0.000000 0.000000 -4.569968 11.014880 -2.160881 0.000008 0.000001 -0.000038 -10.592872 -0.524769 -2.231892 75.394053 31.548678 -24.629855 -27.841524 0.000001 0.000549 -56.762229 107.112652 72.381270 -28.328819 0.000021 0.000027 -0.000321 -0.000046 0.000006 -2.464390 -1.573852 2.682358 -40.464097 -155.805481 6.143782 -3.215230 -1.872506 1.924618 147.141905 33.497215 29.681393 -2.654945 -1.527855 1.513058 147.811495 27.888598 -25.865221 -2.018834 -1.152016 1.108048 -0.000006 -0.000001 0.000002 -9.108376 -0.517555 2.260180 107.806763 15.506718 -21.218015 -3.700080 0.000306 0.001557 106.414368 13.193583 -17.548605 -2.850111 0.000370 -0.000223 105.704848 10.976743 -14.454898 -2.772170 0.000001 -0.000017 -0.000001 -0.000000 -0.000000 -9.532569 0.000270 0.000275 99.362088 16.857213 -19.977072 -3.700079 0.000309 0.004004 101.071254 13.285943 -15.987255 -2.950072 0.000329 -0.001750 103.819032 12.052763 -15.332250 -2.946626 0.000001 -0.000156 -0.000000 0.000002 0.000001 -9.103672 -0.042766 -1.864840 97.197588 19.413933 -21.908781 -3.379352 0.000315 -0.000757 100.984968 11.846832 -14.365088 -2.889760 0.000335 0.000717 108.492473 7.976916 -11.126815 -2.638813 0.000001 0.000939 0.000000 0.000001 -0.000001 -8.076740 -0.486405 -3.806020 85.988673 19.552987 -18.108869 -3.600057 0.000273 -0.003501 91.901186 10.836916 -10.822494 -2.100011 0.000310 -0.005447 98.357866 6.502299 -7.267692 -2.115757 -0.000036 -0.003677 -0.000005 0.000001 -0.000005 4.570446 11.014691 -2.160851 -0.000018 0.000010 -0.000021 10.592373 -0.524504 -2.232319 73.279897 -1.377884 1.024908 27.841814 0.000058 -0.000189 91.296345 -72.003021 73.240399 28.328833 -0.000028 0.000022 0.000022 -0.000088 -0.000000 2.466223 -1.575860 2.681798 -159.729520 -16.499124 32.057718 3.217869 -1.871919 1.916466 166.532620 -12.323347 67.395314 2.656101 -1.528707 1.514512 138.874835 -27.409199 66.508830 2.020894 -1.154072 1.115136 0.000001 0.000001 0.000004 9.109380 -0.517874 2.259751 84.320598 -22.273515 20.201963 3.700050 0.000160 -0.000466 83.761690 -12.824533 11.523641 2.850029 0.000190 0.000193 83.458088 -8.750405 7.806279 2.774890 -0.000015 -0.000023 -0.000001 -0.000004 -0.000001 9.533453 0.000196 -0.000085 80.999773 -21.723220 18.605306 3.700030 0.000177 -0.000384 88.172900 -10.468335 10.138920 2.950040 0.000200 -0.000210 89.731952 -9.438299 9.397264 2.952867 -0.000017 0.000071 0.000000 0.000001 -0.000001 9.104590 -0.042864 -1.865214 78.601578 -21.110491 17.345419 3.150050 0.000195 -0.000092 88.980399 -12.937778 12.713252 2.950012 0.000188 -0.000085 89.440808 -9.721381 9.629107 2.644319 0.000047 0.000048 0.000000 -0.000000 -0.000001 8.077832 -0.486764 -3.806390 68.007797 -20.740556 14.501079 3.600017 0.000146 0.014571 71.261112 -17.175839 12.743386 2.100040 0.000160 0.007549 74.104137 -12.785400 10.041299 2.125507 -0.000000 0.007516 -0.000001 -0.000002 -0.000001 -8.207786 -6.751667 -1.599560 -0.077001 -0.000003 0.000080 -0.000002 -44.370110 0.345938 0.153719 -0.000000 -0.000000 0.000000 -44.423679 -3.043532 -0.076700 0.000000 -0.000002 -0.000006 -8.728667 10.710559 -0.000009 -0.000000 -0.000000 -0.000001 -0.000679 9.278123 0.000000 -0.000000 -0.000000 8.207792 -6.751710 -1.599556 -0.074518 -0.000003 0.000081 -0.000002 -44.370014 0.346960 0.148822 0.000002 0.000000 -0.000001 -44.423664 -3.044403 -0.074314 0.000000 -0.000002 -0.000004 -8.728671 10.710558 0.000007 -0.000000 -0.000000 0.000000 -0.000680 9.278137 -0.000000 0.000000 -0.000001 
0.000006 104.270477 1.554256 0.000010 0.000003 -0.000113 -0.000005 10.181587 0.131522 0.000001 -0.000003 0.000084 -0.000000 9.893967 -1.470711 0.000001 0.000000 -0.000000 -0.000000 9.220802 -1.370642 0.000000 -0.000000 -0.000000 0.000001 16.740433 -2.049030 0.000000 -0.000000 -0.000000 0.000000 9.617859 1.685014 0.000000 0.000000 0.000000 0.000002 22.037384 7.501101 0.000000 -0.000000 0.000000 -4.569968 11.014880 -2.160881 0.000008 0.000001 -0.000038 -10.592869 -0.524791 -2.231870 75.465831 36.724981 -28.809919 -27.841528 0.000000 0.000543 -54.350377 104.320751 66.921784 -28.328829 0.000022 0.000029 -0.000317 -0.000044 0.000010 -2.464403 -1.573903 2.682367 -32.512650 -150.713752 20.387425 -3.215245 -1.872542 1.924623 148.286358 32.857841 21.395670 -2.654963 -1.527861 1.513048 143.756043 28.307208 -26.065419 -2.018834 -1.152014 1.108062 -0.000003 -0.000001 0.000002 -9.108363 -0.517547 2.260150 108.054201 13.675681 -18.824662 -3.700056 0.000336 0.001559 106.816031 10.930484 -14.655298 -2.850075 0.000374 -0.000211 105.488495 9.026358 -11.848774 -2.772171 -0.000000 -0.000024 -0.000002 -0.000002 -0.000000 -9.532585 0.000284 0.000266 100.177606 13.775339 -16.600619 -3.700073 0.000330 0.003996 100.969908 11.023055 -13.232388 -2.950045 0.000325 -0.001764 102.519514 10.729658 -13.343253 -2.946640 0.000014 -0.000153 -0.000000 -0.000002 0.000000 -9.103678 -0.042755 -1.864861 97.071086 16.214615 -18.266168 -3.379328 0.000301 -0.000769 98.954312 10.356687 -12.124653 -2.889771 0.000362 0.000687 106.063153 7.879182 -10.516800 -2.638800 0.000001 0.000940 0.000000 -0.000000 -0.000001 -8.076742 -0.486382 -3.806032 87.309024 17.673647 -16.729669 -3.600047 0.000273 -0.003514 92.220347 9.759472 -9.768211 -2.100019 0.000338 -0.005446 98.846115 6.153292 -6.924561 -2.115767 -0.000055 -0.003682 0.000000 -0.000000 -0.000004 4.570446 11.014691 -2.160851 -0.000018 0.000010 -0.000021 10.592398 -0.524482 -2.232357 71.799918 -12.966702 9.405502 27.841808 0.000061 -0.000195 93.716575 -74.010509 77.615729 28.328823 -0.000029 0.000022 0.000022 -0.000089 0.000000 2.466215 -1.575852 2.681805 -155.681936 -22.270332 22.670766 3.217846 -1.871954 1.916491 164.933728 -11.183844 72.917242 2.656109 -1.528674 1.514502 143.904477 -25.390991 63.058444 2.020899 -1.154066 1.115146 0.000003 0.000003 0.000002 9.109402 -0.517887 2.259754 85.813978 -25.076790 23.346386 3.700062 0.000161 -0.000447 89.270504 -17.064430 16.869046 2.850048 0.000221 0.000206 89.062525 -11.884498 11.691690 2.774880 -0.000044 -0.000025 0.000001 0.000003 -0.000000 9.533476 0.000176 -0.000100 82.616705 -23.223635 20.463576 3.700041 0.000185 -0.000364 91.296741 -13.196657 13.493240 2.950055 0.000196 -0.000210 92.989747 -10.986463 11.574379 2.952873 -0.000015 0.000066 -0.000001 -0.000003 0.000000 9.104608 -0.042882 -1.865223 80.019805 -22.367538 18.847308 3.150073 0.000198 -0.000093 91.530095 -15.143400 15.550292 2.950047 0.000181 -0.000065 92.088586 -10.500229 10.889631 2.644331 0.000044 0.000054 0.000000 0.000002 0.000001 8.077852 -0.486756 -3.806393 70.663744 -22.233661 16.310613 3.600001 0.000136 0.014573 72.389535 -17.958422 13.589692 2.100063 0.000156 0.007552 73.365869 -12.562553 9.740420 2.125499 0.000000 0.007520 0.000001 0.000004 0.000002 -8.207786 -6.751667 -1.599560 -0.077001 -0.000003 0.000080 -0.000002 -44.370110 0.345938 0.153719 -0.000000 -0.000000 0.000000 -44.423679 -3.043532 -0.076700 0.000000 -0.000002 -0.000006 -8.728667 10.710559 -0.000009 -0.000000 -0.000000 -0.000001 -0.000679 9.278123 0.000000 -0.000000 -0.000000 8.207792 -6.751710 -1.599556 -0.074518 -0.000003 0.000081 -0.000002 -44.370014 0.346960 0.148822 0.000002 0.000000 -0.000001 -44.423664 -3.044403 -0.074314 0.000000 -0.000002 -0.000004 -8.728671 10.710558 0.000007 -0.000000 -0.000000 0.000000 -0.000680 9.278137 -0.000000 0.000000 -0.000001 
